<svg xmlns="http://www.w3.org/2000/svg" viewBox="0 0 477.9 477.9"><path d="M51.2 407.6C24.1 407.6 2 385.5 2 358.4V119.5c0-27.1 22.1-49.2 49.2-49.2h375.5c27.1 0 49.2 22.1 49.2 49.2v238.9c0 27.1-22.1 49.2-49.2 49.2H51.2zm-19.1-60v10.8c0 10.5 8.6 19.1 19.1 19.1h375.5c10.5 0 19.1-8.6 19.1-19.1v-45L324.3 192l-143 142.9c-2.8 2.8-6.6 4.4-10.7 4.4s-7.8-1.6-10.7-4.4l-57.6-57.6-70.2 70.3zm19.1-247.2c-10.5 0-19.1 8.6-19.1 19.1V305l59.6-59.6c2.8-2.8 6.6-4.4 10.7-4.4s7.8 1.6 10.7 4.4l57.6 57.6 142.9-143c2.8-2.8 6.6-4.4 10.7-4.4 4 0 7.8 1.6 10.7 4.4l110.8 110.8V119.4c0-10.5-8.6-19.1-19.1-19.1H51.2z"/><path d="M153.6 236.9c-27.1 0-49.2-22.1-49.2-49.2s22.1-49.2 49.2-49.2 49.2 22.1 49.2 49.2-22.1 49.2-49.2 49.2zm0-68.2c-10.5 0-19.1 8.6-19.1 19.1s8.6 19.1 19.1 19.1 19.1-8.6 19.1-19.1-8.6-19.1-19.1-19.1z"/></svg>