<svg xmlns="http://www.w3.org/2000/svg" viewBox="0 0 368 368"><path d="M24 370c-14.3 0-26-11.7-26-26V88c0-14.3 11.7-26 26-26h102V24c0-14.3 11.7-26 26-26h136c2.8 0 5.5 1.2 7.4 3.3l72 80c.4.5.7.9.9 1.3.1.1.1.2.2.3.1.1.1.2.2.3.2.3.4.6.6 1 .5 1.2.7 2.5.7 3.7V280c0 14.3-11.7 26-26 26H242v38c0 14.3-11.7 26-26 26H24zm0-288c-3.3 0-6 2.7-6 6v256c0 3.3 2.7 6 6 6h192c3.3 0 6-2.7 6-6V178h-86c-5.5 0-10-4.5-10-10V82H24zm320 204c3.3 0 6-2.7 6-6V114h-78c-5.5 0-10-4.5-10-10V18H152c-3.3 0-6 2.7-6 6v38h6c2.6 0 5.2 1.1 7.1 2.9l79.5 79.5h1.2v1.3c1.4 1.8 2.2 3.9 2.2 6.2V286h102zM222 158v-1.9L147.9 82H146v76h76zm128-64v-2.2L283.5 18H282v76h68z"/><path d="M368 88c0-1-.2-2-.6-3-.2-.4-.4-.7-.6-1-.3-.5-.5-1-.8-1.4l-72-80C292.4 1 290.3 0 288 0H152c-13.2 0-24 10.8-24 24v40H24C10.8 64 0 74.8 0 88v256c0 13.2 10.8 24 24 24h192c13.2 0 24-10.8 24-24v-40h104c13.2 0 24-10.8 24-24V88zM224 344c0 4.4-3.6 8-8 8H24c-4.4 0-8-3.6-8-8V88c0-4.4 3.6-8 8-8h104v88c0 4.4 3.6 8 8 8h88v168zm0-184h-80V80h4.7l75.3 75.3v4.7zm128 120c0 4.4-3.6 8-8 8H240V152c0-2.1-.8-4-2.2-5.5l-.1-.1-80-80c-1.5-1.5-3.5-2.4-5.7-2.4h-8V24c0-4.4 3.6-8 8-8h112v88c0 4.4 3.6 8 8 8h80v168zm0-184h-72V16h4.4L352 91.1V96z"/></svg>