<svg height="512" viewBox="0 0 512.004 512.004" width="512" xmlns="http://www.w3.org/2000/svg"><path d="M408.567 245.763c-9.403-2.502-16.172-8.642-19.577-17.756a178.44 178.44 0 00-4.858-11.715c-4.05-8.858-3.608-17.996 1.278-26.423 10.524-18.151 7.528-41.175-7.286-55.988-14.814-14.815-37.838-17.811-55.989-7.286-8.427 4.886-17.563 5.328-26.422 1.279a178.55 178.55 0 00-11.714-4.857c-9.115-3.403-15.255-10.173-17.758-19.578-5.394-20.274-23.792-34.434-44.741-34.434s-39.348 14.16-44.741 34.434c-2.502 9.404-8.643 16.173-17.757 19.577a178.522 178.522 0 00-11.715 4.857c-8.857 4.05-17.994 3.608-26.422-1.279-18.151-10.525-41.175-7.528-55.989 7.287-18.048 18.047-18.048 47.413 0 65.46l1.806 1.806a176.392 176.392 0 00-17.86 43.069h-2.534C20.765 244.216 0 264.98 0 290.504c0 20.949 14.16 39.347 34.433 44.741 9.403 2.502 16.173 8.643 19.577 17.757a178.99 178.99 0 004.858 11.715c4.05 8.858 3.608 17.995-1.278 26.422-10.524 18.151-7.528 41.174 7.287 55.988 14.814 14.814 37.839 17.811 55.989 7.286 8.428-4.887 17.564-5.329 26.423-1.279a178.59 178.59 0 0011.714 4.857c9.115 3.403 15.255 10.173 17.757 19.577 5.394 20.274 23.792 34.435 44.741 34.435s39.348-14.16 44.741-34.434c2.502-9.404 8.643-16.174 17.759-19.578 3.95-1.476 7.892-3.11 11.712-4.857 8.858-4.048 17.995-3.607 26.422 1.279 18.152 10.523 41.174 7.528 55.988-7.286 14.815-14.813 17.812-37.837 7.287-55.988-4.886-8.428-5.328-17.565-1.278-26.423A178.012 178.012 0 00388.99 353c3.404-9.114 10.173-15.254 19.576-17.756C428.84 329.85 443 311.452 443 290.505c0-20.95-14.16-39.348-34.433-44.742zm-7.714 60.491c-18.922 5.036-33.115 17.91-39.966 36.251a148.175 148.175 0 01-4.038 9.738c-8.15 17.827-7.224 36.984 2.609 53.944 3.713 6.403 2.666 14.516-2.546 19.728-5.211 5.212-13.324 6.258-19.728 2.546-16.958-9.833-36.115-10.76-53.944-2.609a148.286 148.286 0 01-9.735 4.037c-18.344 6.85-31.219 21.044-36.254 39.969-1.903 7.152-8.379 12.147-15.75 12.147-7.37 0-13.847-4.995-15.75-12.148-5.036-18.924-17.911-33.119-36.254-39.968a148.984 148.984 0 01-9.736-4.037c-8.038-3.675-16.345-5.504-24.6-5.504-10.055 0-20.031 2.714-29.344 8.114-6.404 3.712-14.516 2.666-19.729-2.547-5.212-5.211-6.259-13.323-2.546-19.727 9.833-16.959 10.759-36.117 2.61-53.943a148.87 148.87 0 01-4.039-9.738c-6.85-18.342-21.043-31.217-39.967-36.253-7.151-1.903-12.146-8.38-12.146-15.75 0-8.981 7.307-16.288 16.288-16.288h14.469a15 15 0 0014.727-12.15c3.802-19.643 11.431-38.042 22.676-54.688a15.001 15.001 0 00-1.823-19.003L86.09 178.128c-6.351-6.351-6.351-16.684 0-23.035 5.212-5.211 13.324-6.259 19.728-2.546 16.959 9.833 36.117 10.761 53.942 2.61a148.138 148.138 0 019.737-4.037c18.343-6.85 31.218-21.044 36.253-39.968 1.903-7.152 8.379-12.147 15.75-12.147 7.37 0 13.847 4.995 15.75 12.147 5.036 18.924 17.911 33.119 36.254 39.968a148.392 148.392 0 019.736 4.037c17.827 8.149 36.984 7.222 53.942-2.61 6.402-3.714 14.516-2.666 19.728 2.547 5.212 5.211 6.259 13.324 2.546 19.727-9.833 16.959-10.759 36.117-2.609 53.944a148.32 148.32 0 014.039 9.738c6.851 18.342 21.044 31.216 39.966 36.251 7.152 1.903 12.147 8.38 12.147 15.75.001 7.37-4.994 13.847-12.146 15.75zm99.291-220.161l-5.265-2.695a55.374 55.374 0 001.1-13.634l5.628-1.817c7.884-2.545 12.212-10.999 9.667-18.882-2.545-7.884-11.002-12.21-18.882-9.667l-5.629 1.817a55.331 55.331 0 00-8.864-10.418l2.696-5.265c3.775-7.374.857-16.412-6.517-20.188s-16.412-.858-20.188 6.517l-2.704 5.282a55.768 55.768 0 00-13.615-1.082l-1.828-5.663c-2.544-7.884-10.999-12.212-18.882-9.667-7.884 2.545-12.211 10.999-9.667 18.882l1.828 5.662a55.762 55.762 0 00-10.413 8.839l-5.282-2.704c-7.374-3.774-16.412-.858-20.188 6.517-3.775 7.374-.857 16.412 6.517 20.188l5.265 2.695a55.37 55.37 0 00-1.099 13.634l-5.629 1.817c-7.883 2.544-12.211 10.999-9.667 18.882 2.051 6.353 7.938 10.396 14.271 10.396 1.527 0 3.08-.235 4.611-.729l5.628-1.817a55.363 55.363 0 008.863 10.418l-2.696 5.266c-3.775 7.374-.857 16.412 6.517 20.187a14.923 14.923 0 006.823 1.651c5.451 0 10.71-2.982 13.364-8.168l2.698-5.271a55.394 55.394 0 0011.231 1.175c.801 0 1.602-.021 2.403-.056l1.813 5.616c2.051 6.353 7.938 10.396 14.271 10.396 1.527 0 3.08-.235 4.611-.729 7.884-2.545 12.211-10.999 9.667-18.883l-1.817-5.628a55.363 55.363 0 0010.418-8.863l5.266 2.696a14.923 14.923 0 006.823 1.651c5.451 0 10.71-2.982 13.364-8.168 3.781-7.377.863-16.415-6.511-20.19zm-36.994-2.087c-6.563 12.819-22.33 17.911-35.151 11.346-12.819-6.563-17.909-22.332-11.346-35.151 4.618-9.02 13.793-14.213 23.292-14.213 4.001 0 8.06.922 11.86 2.867 12.819 6.562 17.908 22.331 11.345 35.151z"/><path d="M221.501 173.297c-64.628 0-117.207 52.579-117.207 117.207s52.579 117.207 117.207 117.207 117.207-52.579 117.207-117.207-52.579-117.207-117.207-117.207zm0 204.414c-14.589 0-28.35-3.606-40.446-9.966 8.615-13.932 23.807-22.609 40.446-22.609 16.539 0 31.842 8.897 40.421 22.623-12.091 6.351-25.843 9.952-40.421 9.952zm-23.589-87.207c0-13.007 10.582-23.588 23.589-23.588s23.588 10.582 23.588 23.588-10.582 23.589-23.588 23.589-23.589-10.582-23.589-23.589zm87.833 58.906c-4.86-7.177-10.898-13.578-17.86-18.796a79 79 0 00-6.499-4.369c8.513-9.49 13.703-22.02 13.703-35.742 0-29.549-24.04-53.588-53.588-53.588s-53.589 24.04-53.589 53.588c0 13.707 5.179 26.223 13.675 35.709a77.679 77.679 0 00-24.369 23.155c-14.227-15.524-22.923-36.197-22.923-58.865 0-48.086 39.121-87.207 87.207-87.207s87.207 39.121 87.207 87.207c-.001 22.69-8.713 43.379-22.964 58.908z"/></svg>