<svg xmlns="http://www.w3.org/2000/svg" viewBox="0 0 512 512"><path d="M137.6 502c-2.6 0-5.1-1-7-2.9-3.8-3.8-3.8-10.1 0-13.9L360.5 256 130.6 26.8c-1.9-1.9-2.9-4.3-2.9-7 0-2.6 1-5.1 2.9-7 1.9-1.9 4.3-2.9 7-2.9 2.6 0 5.1 1 7 2.9L381.4 249c1.8 1.8 2.9 4.4 2.9 7 0 2.6-1.1 5.1-2.9 7L144.5 499.1c-1.8 1.9-4.3 2.9-6.9 2.9z"/><path d="M137.6 497c-.9 0-2.3-.2-3.4-1.4-1.9-1.9-1.9-5 0-6.8L367.5 256 134.2 23.3c-1.2-1.2-1.4-2.7-1.4-3.4 0-.7.2-2.2 1.4-3.4 1.2-1.2 2.7-1.4 3.4-1.4.9 0 2.3.2 3.4 1.4l236.8 236.2c.9.9 1.4 2.2 1.4 3.4 0 1.3-.5 2.5-1.4 3.4L141 495.6c-1.2 1.2-2.5 1.4-3.4 1.4z"/></svg>