<?xml version="1.0" encoding="utf-8"?><svg xmlns="http://www.w3.org/2000/svg" xmlns:xlink="http://www.w3.org/1999/xlink"><symbol viewBox="0 0 512.004 512.004" id="advantage_1" xmlns="http://www.w3.org/2000/svg"><path d="M408.567 245.763c-9.403-2.502-16.172-8.642-19.577-17.756a178.44 178.44 0 00-4.858-11.715c-4.05-8.858-3.608-17.996 1.278-26.423 10.524-18.151 7.528-41.175-7.286-55.988-14.814-14.815-37.838-17.811-55.989-7.286-8.427 4.886-17.563 5.328-26.422 1.279a178.55 178.55 0 00-11.714-4.857c-9.115-3.403-15.255-10.173-17.758-19.578-5.394-20.274-23.792-34.434-44.741-34.434s-39.348 14.16-44.741 34.434c-2.502 9.404-8.643 16.173-17.757 19.577a178.522 178.522 0 00-11.715 4.857c-8.857 4.05-17.994 3.608-26.422-1.279-18.151-10.525-41.175-7.528-55.989 7.287-18.048 18.047-18.048 47.413 0 65.46l1.806 1.806a176.392 176.392 0 00-17.86 43.069h-2.534C20.765 244.216 0 264.98 0 290.504c0 20.949 14.16 39.347 34.433 44.741 9.403 2.502 16.173 8.643 19.577 17.757a178.99 178.99 0 004.858 11.715c4.05 8.858 3.608 17.995-1.278 26.422-10.524 18.151-7.528 41.174 7.287 55.988 14.814 14.814 37.839 17.811 55.989 7.286 8.428-4.887 17.564-5.329 26.423-1.279a178.59 178.59 0 0011.714 4.857c9.115 3.403 15.255 10.173 17.757 19.577 5.394 20.274 23.792 34.435 44.741 34.435s39.348-14.16 44.741-34.434c2.502-9.404 8.643-16.174 17.759-19.578 3.95-1.476 7.892-3.11 11.712-4.857 8.858-4.048 17.995-3.607 26.422 1.279 18.152 10.523 41.174 7.528 55.988-7.286 14.815-14.813 17.812-37.837 7.287-55.988-4.886-8.428-5.328-17.565-1.278-26.423A178.012 178.012 0 00388.99 353c3.404-9.114 10.173-15.254 19.576-17.756C428.84 329.85 443 311.452 443 290.505c0-20.95-14.16-39.348-34.433-44.742zm-7.714 60.491c-18.922 5.036-33.115 17.91-39.966 36.251a148.175 148.175 0 01-4.038 9.738c-8.15 17.827-7.224 36.984 2.609 53.944 3.713 6.403 2.666 14.516-2.546 19.728-5.211 5.212-13.324 6.258-19.728 2.546-16.958-9.833-36.115-10.76-53.944-2.609a148.286 148.286 0 01-9.735 4.037c-18.344 6.85-31.219 21.044-36.254 39.969-1.903 7.152-8.379 12.147-15.75 12.147-7.37 0-13.847-4.995-15.75-12.148-5.036-18.924-17.911-33.119-36.254-39.968a148.984 148.984 0 01-9.736-4.037c-8.038-3.675-16.345-5.504-24.6-5.504-10.055 0-20.031 2.714-29.344 8.114-6.404 3.712-14.516 2.666-19.729-2.547-5.212-5.211-6.259-13.323-2.546-19.727 9.833-16.959 10.759-36.117 2.61-53.943a148.87 148.87 0 01-4.039-9.738c-6.85-18.342-21.043-31.217-39.967-36.253-7.151-1.903-12.146-8.38-12.146-15.75 0-8.981 7.307-16.288 16.288-16.288h14.469a15 15 0 0014.727-12.15c3.802-19.643 11.431-38.042 22.676-54.688a15.001 15.001 0 00-1.823-19.003L86.09 178.128c-6.351-6.351-6.351-16.684 0-23.035 5.212-5.211 13.324-6.259 19.728-2.546 16.959 9.833 36.117 10.761 53.942 2.61a148.138 148.138 0 019.737-4.037c18.343-6.85 31.218-21.044 36.253-39.968 1.903-7.152 8.379-12.147 15.75-12.147 7.37 0 13.847 4.995 15.75 12.147 5.036 18.924 17.911 33.119 36.254 39.968a148.392 148.392 0 019.736 4.037c17.827 8.149 36.984 7.222 53.942-2.61 6.402-3.714 14.516-2.666 19.728 2.547 5.212 5.211 6.259 13.324 2.546 19.727-9.833 16.959-10.759 36.117-2.609 53.944a148.32 148.32 0 014.039 9.738c6.851 18.342 21.044 31.216 39.966 36.251 7.152 1.903 12.147 8.38 12.147 15.75.001 7.37-4.994 13.847-12.146 15.75zm99.291-220.161l-5.265-2.695a55.374 55.374 0 001.1-13.634l5.628-1.817c7.884-2.545 12.212-10.999 9.667-18.882-2.545-7.884-11.002-12.21-18.882-9.667l-5.629 1.817a55.331 55.331 0 00-8.864-10.418l2.696-5.265c3.775-7.374.857-16.412-6.517-20.188s-16.412-.858-20.188 6.517l-2.704 5.282a55.768 55.768 0 00-13.615-1.082l-1.828-5.663c-2.544-7.884-10.999-12.212-18.882-9.667-7.884 2.545-12.211 10.999-9.667 18.882l1.828 5.662a55.762 55.762 0 00-10.413 8.839l-5.282-2.704c-7.374-3.774-16.412-.858-20.188 6.517-3.775 7.374-.857 16.412 6.517 20.188l5.265 2.695a55.37 55.37 0 00-1.099 13.634l-5.629 1.817c-7.883 2.544-12.211 10.999-9.667 18.882 2.051 6.353 7.938 10.396 14.271 10.396 1.527 0 3.08-.235 4.611-.729l5.628-1.817a55.363 55.363 0 008.863 10.418l-2.696 5.266c-3.775 7.374-.857 16.412 6.517 20.187a14.923 14.923 0 006.823 1.651c5.451 0 10.71-2.982 13.364-8.168l2.698-5.271a55.394 55.394 0 0011.231 1.175c.801 0 1.602-.021 2.403-.056l1.813 5.616c2.051 6.353 7.938 10.396 14.271 10.396 1.527 0 3.08-.235 4.611-.729 7.884-2.545 12.211-10.999 9.667-18.883l-1.817-5.628a55.363 55.363 0 0010.418-8.863l5.266 2.696a14.923 14.923 0 006.823 1.651c5.451 0 10.71-2.982 13.364-8.168 3.781-7.377.863-16.415-6.511-20.19zm-36.994-2.087c-6.563 12.819-22.33 17.911-35.151 11.346-12.819-6.563-17.909-22.332-11.346-35.151 4.618-9.02 13.793-14.213 23.292-14.213 4.001 0 8.06.922 11.86 2.867 12.819 6.562 17.908 22.331 11.345 35.151z"/><path d="M221.501 173.297c-64.628 0-117.207 52.579-117.207 117.207s52.579 117.207 117.207 117.207 117.207-52.579 117.207-117.207-52.579-117.207-117.207-117.207zm0 204.414c-14.589 0-28.35-3.606-40.446-9.966 8.615-13.932 23.807-22.609 40.446-22.609 16.539 0 31.842 8.897 40.421 22.623-12.091 6.351-25.843 9.952-40.421 9.952zm-23.589-87.207c0-13.007 10.582-23.588 23.589-23.588s23.588 10.582 23.588 23.588-10.582 23.589-23.588 23.589-23.589-10.582-23.589-23.589zm87.833 58.906c-4.86-7.177-10.898-13.578-17.86-18.796a79 79 0 00-6.499-4.369c8.513-9.49 13.703-22.02 13.703-35.742 0-29.549-24.04-53.588-53.588-53.588s-53.589 24.04-53.589 53.588c0 13.707 5.179 26.223 13.675 35.709a77.679 77.679 0 00-24.369 23.155c-14.227-15.524-22.923-36.197-22.923-58.865 0-48.086 39.121-87.207 87.207-87.207s87.207 39.121 87.207 87.207c-.001 22.69-8.713 43.379-22.964 58.908z"/></symbol><symbol viewBox="0 0 512 512" id="advantage_2" xmlns="http://www.w3.org/2000/svg"><path d="M74.7 517c-32.2 0-58.3-26.2-58.3-58.3V53.3C16.3 21.2 42.5-5 74.7-5h234.7c32.2 0 58.3 26.2 58.3 58.3 0 8.6-7 15.7-15.7 15.7s-15.7-7-15.7-15.7c0-14.9-12.1-27-27-27H74.7c-14.9 0-27 12.1-27 27v405.3c0 14.9 12.1 27 27 27h234.7c14.9 0 27-12.1 27-27V416c0-8.6 7-15.7 15.7-15.7s15.7 7 15.7 15.7v42.7c0 32.2-26.2 58.3-58.3 58.3H74.7z"/><path d="M309.3 512H74.7c-29.4 0-53.3-23.9-53.3-53.3V53.3C21.3 23.9 45.3 0 74.7 0h234.7c29.4 0 53.3 23.9 53.3 53.3 0 5.9-4.8 10.7-10.7 10.7-5.9 0-10.7-4.8-10.7-10.7 0-17.6-14.4-32-32-32H74.7c-17.6 0-32 14.4-32 32v405.3c0 17.6 14.4 32 32 32h234.7c17.6 0 32-14.4 32-32V416c0-5.9 4.8-10.7 10.7-10.7 5.9 0 10.7 4.8 10.7 10.7v42.7c-.1 29.4-24.1 53.3-53.5 53.3z"/><path d="M149.3 69c-20.4 0-37-16.6-37-37 0-3.1-2.5-5.7-5.7-5.7H85.3c-8.6 0-15.7-7-15.7-15.7S76.7-5 85.3-5h21.3c20.4 0 37 16.6 37 37 0 3.1 2.5 5.7 5.7 5.7h85.3c3.1 0 5.7-2.5 5.7-5.7 0-20.4 16.6-37 37-37h21.3c8.6 0 15.7 7 15.7 15.7s-7 15.7-15.7 15.7h-21.3c-3.1 0-5.7 2.5-5.7 5.7 0 20.4-16.6 37-37 37h-85.3z"/><path d="M234.7 64h-85.3c-17.6 0-32-14.4-32-32 0-5.9-4.8-10.7-10.7-10.7H85.3c-5.9 0-10.7-4.8-10.7-10.7S79.4 0 85.3 0h21.3c17.6 0 32 14.4 32 32 0 5.9 4.8 10.7 10.7 10.7h85.3c5.9 0 10.7-4.8 10.7-10.7 0-17.6 14.4-32 32-32h21.3c5.9 0 10.7 4.8 10.7 10.7s-4.8 10.7-10.7 10.7h-21.3c-5.9 0-10.7 4.8-10.7 10.7.1 17.5-14.3 31.9-31.9 31.9zm74.6 303.7c-20.4 0-37-16.6-37-37V160c0-20.4 16.6-37 37-37h149.3c20.4 0 37 16.6 37 37v170.7c0 20.4-16.6 37-37 37H309.3zm0-213.4c-3.1 0-5.7 2.5-5.7 5.7v170.7c0 3.1 2.5 5.7 5.7 5.7h149.3c3.1 0 5.7-2.5 5.7-5.7V160c0-3.1-2.5-5.7-5.7-5.7H309.3z"/><path d="M458.7 362.7H309.3c-17.6 0-32-14.4-32-32V160c0-17.6 14.4-32 32-32h149.3c17.6 0 32 14.4 32 32v170.7c.1 17.6-14.3 32-31.9 32zM309.3 149.3c-5.9 0-10.7 4.8-10.7 10.7v170.7c0 5.9 4.8 10.7 10.7 10.7h149.3c5.9 0 10.7-4.8 10.7-10.7V160c0-5.9-4.8-10.7-10.7-10.7H309.3z"/><path d="M352 303.7c-8.6 0-15.7-7-15.7-15.7s7-15.7 15.7-15.7h64c8.6 0 15.7 7 15.7 15.7s-7 15.7-15.7 15.7h-64z"/><path d="M416 298.7h-64c-5.9 0-10.7-4.8-10.7-10.7s4.8-10.7 10.7-10.7h64c5.9 0 10.7 4.8 10.7 10.7s-4.8 10.7-10.7 10.7zm-64-59c-8.6 0-15.7-7-15.7-15.7s7-15.7 15.7-15.7h64c8.6 0 15.7 7 15.7 15.7s-7 15.7-15.7 15.7h-64z"/><path d="M416 234.7h-64c-5.9 0-10.7-4.8-10.7-10.7s4.8-10.7 10.7-10.7h64c5.9 0 10.7 4.8 10.7 10.7s-4.8 10.7-10.7 10.7zm0-59c-8.6 0-15.7-7-15.7-15.7v-42.7c0-8.6 7-15.7 15.7-15.7s15.7 7 15.7 15.7V160c0 8.6-7.1 15.7-15.7 15.7z"/><path d="M416 170.7c-5.9 0-10.7-4.8-10.7-10.7v-42.7c0-5.9 4.8-10.7 10.7-10.7 5.9 0 10.7 4.8 10.7 10.7V160c0 5.9-4.8 10.7-10.7 10.7zm-64 5c-8.6 0-15.7-7-15.7-15.7v-42.7c0-8.6 7-15.7 15.7-15.7s15.7 7 15.7 15.7V160c0 8.6-7.1 15.7-15.7 15.7z"/><path d="M352 170.7c-5.9 0-10.7-4.8-10.7-10.7v-42.7c0-5.9 4.8-10.7 10.7-10.7 5.9 0 10.7 4.8 10.7 10.7V160c0 5.9-4.8 10.7-10.7 10.7z"/></symbol><symbol viewBox="0 0 512 512" id="advantage_3" xmlns="http://www.w3.org/2000/svg"><path d="M437.02 74.98C388.668 26.63 324.383 0 256.004 0h-.008C187.617 0 123.332 26.629 74.98 74.98 26.63 123.332 0 187.621 0 256s26.629 132.668 74.98 181.02C123.332 485.37 187.621 512 256 512s132.668-26.629 181.02-74.98C485.37 388.668 512 324.379 512 256s-26.629-132.668-74.98-181.02zm16.722 290.336h-74.926c10.04-29.414 16.086-61.261 17.497-94.316h85.175a224.318 224.318 0 01-27.746 94.316zM256 479.781c-31.93-19-58.41-48.449-77.457-84.465h154.914C314.41 431.332 287.93 460.781 256 479.781zm-91.016-114.465c-11.03-28.941-17.718-60.898-19.265-94.316H366.28c-1.547 33.418-8.238 65.375-19.27 94.316zM30.512 271h85.175c1.41 33.055 7.458 64.902 17.497 94.316H58.258A224.318 224.318 0 0130.512 271zm27.746-124.316h74.926c-10.04 29.414-16.086 61.261-17.496 94.316H30.511a224.318 224.318 0 0127.746-94.316zM256 32.219c31.93 19 58.41 48.449 77.457 84.465H178.543C197.59 80.668 224.07 51.219 256 32.219zm91.016 114.465c11.03 28.941 17.718 60.898 19.265 94.316H145.72c1.547-33.418 8.238-65.375 19.27-94.316zM481.488 241h-85.175c-1.41-33.055-7.458-64.902-17.497-94.316h74.926A224.318 224.318 0 01481.488 241zM366.805 116.684c-14.258-30.797-33.227-58.012-56-79.95 49.43 12.36 92.472 41.028 123.03 79.95zm-165.61-79.95c-22.773 21.938-41.742 49.153-56 79.95h-67.03c30.558-38.922 73.6-67.59 123.03-79.95zm-56 358.582c14.258 30.797 33.227 58.012 56 79.95-49.43-12.36-92.472-41.028-123.03-79.95zm165.61 79.95c22.773-21.938 41.742-49.157 56-79.95h67.03c-30.558 38.922-73.6 67.59-123.03 79.95zm0 0"/></symbol><symbol viewBox="0 0 511.999 511.999" id="advantage_4" xmlns="http://www.w3.org/2000/svg"><path d="M510.156 401.843L480.419 315.3c14.334-29.302 21.909-61.89 21.96-94.679.088-57.013-21.97-110.92-62.112-151.79-40.15-40.878-93.652-63.889-150.652-64.792-59.105-.934-114.661 21.548-156.428 63.314-40.274 40.273-62.612 93.366-63.319 150.102-39.694 29.886-63.123 76.481-63.046 126.25.037 23.29 5.279 46.441 15.212 67.376L1.551 470.689c-3.521 10.247-.949 21.373 6.713 29.035 5.392 5.393 12.501 8.264 19.812 8.264 3.076 0 6.188-.508 9.223-1.551l59.609-20.483c20.935 9.933 44.086 15.175 67.376 15.212h.248c50.51-.002 97.46-24.035 127.237-64.702 30.987-.816 61.646-8.317 89.363-21.876l86.544 29.738a33.696 33.696 0 0010.959 1.843c8.688 0 17.136-3.412 23.545-9.822 9.104-9.105 12.16-22.326 7.976-34.504zM164.53 470.69h-.199c-20.614-.031-41.085-5.113-59.196-14.695a15.244 15.244 0 00-12.078-.942l-61.123 21.003 21.003-61.122a15.24 15.24 0 00-.942-12.078c-9.582-18.112-14.664-38.582-14.696-59.197-.051-33.159 12.848-64.588 35.405-88.122 7.368 44.916 28.775 86.306 61.957 118.898 32.937 32.351 74.339 52.949 119.011 59.683-23.588 23.249-55.384 36.572-89.142 36.572zm316.098-55.893c-.867.867-1.895 1.103-3.051.705l-92.648-31.836a15.232 15.232 0 00-12.077.942c-26.453 13.994-56.345 21.416-86.447 21.462h-.288c-100.863 0-184.176-81.934-185.774-182.773-.805-50.785 18.513-98.514 54.394-134.395 35.881-35.881 83.618-55.192 134.396-54.392 100.936 1.601 182.926 85.068 182.77 186.063-.047 30.102-7.468 59.995-21.461 86.446a15.24 15.24 0 00-.942 12.078l31.835 92.648c.397 1.16.159 2.187-.707 3.052z"/><path d="M376.892 139.512h-181.56c-8.416 0-15.238 6.823-15.238 15.238 0 8.416 6.823 15.238 15.238 15.238h181.56c8.416 0 15.238-6.823 15.238-15.238s-6.822-15.238-15.238-15.238zm0 62.671h-181.56c-8.416 0-15.238 6.823-15.238 15.238s6.823 15.238 15.238 15.238h181.56c8.416 0 15.238-6.823 15.238-15.238s-6.822-15.238-15.238-15.238zm-69.888 62.669H195.331c-8.416 0-15.238 6.823-15.238 15.238 0 8.416 6.823 15.238 15.238 15.238h111.672c8.416 0 15.238-6.823 15.238-15.238s-6.821-15.238-15.237-15.238z"/></symbol><symbol viewBox="0 0 368 368" id="advantage_5" xmlns="http://www.w3.org/2000/svg"><path d="M24 370c-14.3 0-26-11.7-26-26V88c0-14.3 11.7-26 26-26h102V24c0-14.3 11.7-26 26-26h136c2.8 0 5.5 1.2 7.4 3.3l72 80c.4.5.7.9.9 1.3.1.1.1.2.2.3.1.1.1.2.2.3.2.3.4.6.6 1 .5 1.2.7 2.5.7 3.7V280c0 14.3-11.7 26-26 26H242v38c0 14.3-11.7 26-26 26H24zm0-288c-3.3 0-6 2.7-6 6v256c0 3.3 2.7 6 6 6h192c3.3 0 6-2.7 6-6V178h-86c-5.5 0-10-4.5-10-10V82H24zm320 204c3.3 0 6-2.7 6-6V114h-78c-5.5 0-10-4.5-10-10V18H152c-3.3 0-6 2.7-6 6v38h6c2.6 0 5.2 1.1 7.1 2.9l79.5 79.5h1.2v1.3c1.4 1.8 2.2 3.9 2.2 6.2V286h102zM222 158v-1.9L147.9 82H146v76h76zm128-64v-2.2L283.5 18H282v76h68z"/><path d="M368 88c0-1-.2-2-.6-3-.2-.4-.4-.7-.6-1-.3-.5-.5-1-.8-1.4l-72-80C292.4 1 290.3 0 288 0H152c-13.2 0-24 10.8-24 24v40H24C10.8 64 0 74.8 0 88v256c0 13.2 10.8 24 24 24h192c13.2 0 24-10.8 24-24v-40h104c13.2 0 24-10.8 24-24V88zM224 344c0 4.4-3.6 8-8 8H24c-4.4 0-8-3.6-8-8V88c0-4.4 3.6-8 8-8h104v88c0 4.4 3.6 8 8 8h88v168zm0-184h-80V80h4.7l75.3 75.3v4.7zm128 120c0 4.4-3.6 8-8 8H240V152c0-2.1-.8-4-2.2-5.5l-.1-.1-80-80c-1.5-1.5-3.5-2.4-5.7-2.4h-8V24c0-4.4 3.6-8 8-8h112v88c0 4.4 3.6 8 8 8h80v168zm0-184h-72V16h4.4L352 91.1V96z"/></symbol><symbol viewBox="0 0 477.9 477.9" id="advantage_6" xmlns="http://www.w3.org/2000/svg"><path d="M51.2 407.6C24.1 407.6 2 385.5 2 358.4V119.5c0-27.1 22.1-49.2 49.2-49.2h375.5c27.1 0 49.2 22.1 49.2 49.2v238.9c0 27.1-22.1 49.2-49.2 49.2H51.2zm-19.1-60v10.8c0 10.5 8.6 19.1 19.1 19.1h375.5c10.5 0 19.1-8.6 19.1-19.1v-45L324.3 192l-143 142.9c-2.8 2.8-6.6 4.4-10.7 4.4s-7.8-1.6-10.7-4.4l-57.6-57.6-70.2 70.3zm19.1-247.2c-10.5 0-19.1 8.6-19.1 19.1V305l59.6-59.6c2.8-2.8 6.6-4.4 10.7-4.4s7.8 1.6 10.7 4.4l57.6 57.6 142.9-143c2.8-2.8 6.6-4.4 10.7-4.4 4 0 7.8 1.6 10.7 4.4l110.8 110.8V119.4c0-10.5-8.6-19.1-19.1-19.1H51.2z"/><path d="M153.6 236.9c-27.1 0-49.2-22.1-49.2-49.2s22.1-49.2 49.2-49.2 49.2 22.1 49.2 49.2-22.1 49.2-49.2 49.2zm0-68.2c-10.5 0-19.1 8.6-19.1 19.1s8.6 19.1 19.1 19.1 19.1-8.6 19.1-19.1-8.6-19.1-19.1-19.1z"/></symbol><symbol viewBox="0 0 512 512" id="advantage_7" xmlns="http://www.w3.org/2000/svg"><path d="M272.066 512h-32.133c-25.989 0-47.134-21.144-47.134-47.133v-10.871a206.698 206.698 0 01-32.097-13.323l-7.704 7.704c-18.659 18.682-48.548 18.134-66.665-.007l-22.711-22.71c-18.149-18.129-18.671-48.008.006-66.665l7.698-7.698A206.714 206.714 0 0158.003 319.2h-10.87C21.145 319.2 0 298.056 0 272.067v-32.134C0 213.944 21.145 192.8 47.134 192.8h10.87a206.755 206.755 0 0113.323-32.097L63.623 153c-18.666-18.646-18.151-48.528.006-66.665l22.713-22.712c18.159-18.184 48.041-18.638 66.664.006l7.697 7.697A206.893 206.893 0 01192.8 58.003v-10.87C192.8 21.144 213.944 0 239.934 0h32.133C298.056 0 319.2 21.144 319.2 47.133v10.871a206.698 206.698 0 0132.097 13.323l7.704-7.704c18.659-18.682 48.548-18.134 66.665.007l22.711 22.71c18.149 18.129 18.671 48.008-.006 66.665l-7.698 7.698a206.714 206.714 0 0113.323 32.097h10.87c25.989 0 47.134 21.144 47.134 47.133v32.134c0 25.989-21.145 47.133-47.134 47.133h-10.87a206.755 206.755 0 01-13.323 32.097l7.704 7.704c18.666 18.646 18.151 48.528-.006 66.665l-22.713 22.712c-18.159 18.184-48.041 18.638-66.664-.006l-7.697-7.697a206.893 206.893 0 01-32.097 13.323v10.871c0 25.987-21.144 47.131-47.134 47.131zM165.717 409.17a176.812 176.812 0 0045.831 19.025 14.999 14.999 0 0111.252 14.524v22.148c0 9.447 7.687 17.133 17.134 17.133h32.133c9.447 0 17.134-7.686 17.134-17.133v-22.148a14.999 14.999 0 0111.252-14.524 176.812 176.812 0 0045.831-19.025 15 15 0 0118.243 2.305l15.688 15.689c6.764 6.772 17.626 6.615 24.224.007l22.727-22.726c6.582-6.574 6.802-17.438.006-24.225l-15.695-15.695a15 15 0 01-2.305-18.242 176.78 176.78 0 0019.024-45.831 15 15 0 0114.524-11.251h22.147c9.447 0 17.134-7.686 17.134-17.133v-32.134c0-9.447-7.687-17.133-17.134-17.133H442.72a15 15 0 01-14.524-11.251 176.815 176.815 0 00-19.024-45.831 15 15 0 012.305-18.242l15.689-15.689c6.782-6.774 6.605-17.634.006-24.225l-22.725-22.725c-6.587-6.596-17.451-6.789-24.225-.006l-15.694 15.695a15 15 0 01-18.243 2.305 176.812 176.812 0 00-45.831-19.025 14.999 14.999 0 01-11.252-14.524v-22.15c0-9.447-7.687-17.133-17.134-17.133h-32.133c-9.447 0-17.134 7.686-17.134 17.133v22.148a14.999 14.999 0 01-11.252 14.524 176.812 176.812 0 00-45.831 19.025 15.002 15.002 0 01-18.243-2.305l-15.688-15.689c-6.764-6.772-17.627-6.615-24.224-.007l-22.727 22.726c-6.582 6.574-6.802 17.437-.006 24.225l15.695 15.695a15 15 0 012.305 18.242 176.78 176.78 0 00-19.024 45.831 15 15 0 01-14.524 11.251H47.134C37.687 222.8 30 230.486 30 239.933v32.134c0 9.447 7.687 17.133 17.134 17.133h22.147a15 15 0 0114.524 11.251 176.815 176.815 0 0019.024 45.831 15 15 0 01-2.305 18.242l-15.689 15.689c-6.782 6.774-6.605 17.634-.006 24.225l22.725 22.725c6.587 6.596 17.451 6.789 24.225.006l15.694-15.695c3.568-3.567 10.991-6.594 18.244-2.304z"/><path d="M256 367.4c-61.427 0-111.4-49.974-111.4-111.4S194.573 144.6 256 144.6 367.4 194.574 367.4 256 317.427 367.4 256 367.4zm0-192.8c-44.885 0-81.4 36.516-81.4 81.4s36.516 81.4 81.4 81.4 81.4-36.516 81.4-81.4-36.515-81.4-81.4-81.4z"/></symbol><symbol viewBox="0 0 24 24" id="arrow-next" xmlns="http://www.w3.org/2000/svg"><path d="M18.12 11.66L6.57.14A.51.51 0 006.23 0a.5.5 0 00-.35.14.49.49 0 00-.14.34.48.48 0 00.14.34L17.1 12 5.88 23.18a.5.5 0 000 .68.52.52 0 00.35.14.47.47 0 00.33-.14l11.56-11.52a.52.52 0 00.14-.34.54.54 0 00-.14-.34z"/></symbol><symbol viewBox="0 0 512 512" id="facebook" xmlns="http://www.w3.org/2000/svg"><path d="M512 256C512 114.6 397.4 0 256 0S0 114.6 0 256s114.6 256 256 256c1.5 0 3 0 4.5-.1V312.7h-55v-64.1h55v-47.2c0-54.7 33.4-84.5 82.2-84.5 23.4 0 43.5 1.7 49.3 2.5v57.2h-33.6c-26.5 0-31.7 12.6-31.7 31.1v40.8h63.5l-8.3 64.1h-55.2v189.5C433.7 471.4 512 372.9 512 256z"/></symbol><symbol viewBox="0 0 24 24" id="google-plus" xmlns="http://www.w3.org/2000/svg"><path d="M12 24c6.624 0 12-5.376 12-12S18.624 0 12 0 0 5.376 0 12s5.376 12 12 12zm4.283-12.857h1.718V9.426h1.718v1.718h1.703v1.718h-1.703v1.718h-1.718v-1.718h-1.718zM8.579 5.999c1.514 0 2.908.533 4.017 1.563L10.97 9.14c-.639-.625-1.514-.924-2.391-.924-2.076 0-3.736 1.718-3.736 3.779s1.655 3.779 3.736 3.779c1.577 0 3.14-.924 3.392-2.579H8.579v-2.061h5.657c.063.329.092.658.092 1.001 0 3.426-2.299 5.864-5.749 5.864V18c-3.329 0-6.001-2.686-6.001-6.001s2.672-6 6.001-6z"/></symbol><symbol viewBox="0 0 512 512" id="next-arrow" xmlns="http://www.w3.org/2000/svg"><path d="M137.6 502c-2.6 0-5.1-1-7-2.9-3.8-3.8-3.8-10.1 0-13.9L360.5 256 130.6 26.8c-1.9-1.9-2.9-4.3-2.9-7 0-2.6 1-5.1 2.9-7 1.9-1.9 4.3-2.9 7-2.9 2.6 0 5.1 1 7 2.9L381.4 249c1.8 1.8 2.9 4.4 2.9 7 0 2.6-1.1 5.1-2.9 7L144.5 499.1c-1.8 1.9-4.3 2.9-6.9 2.9z"/><path d="M137.6 497c-.9 0-2.3-.2-3.4-1.4-1.9-1.9-1.9-5 0-6.8L367.5 256 134.2 23.3c-1.2-1.2-1.4-2.7-1.4-3.4 0-.7.2-2.2 1.4-3.4 1.2-1.2 2.7-1.4 3.4-1.4.9 0 2.3.2 3.4 1.4l236.8 236.2c.9.9 1.4 2.2 1.4 3.4 0 1.3-.5 2.5-1.4 3.4L141 495.6c-1.2 1.2-2.5 1.4-3.4 1.4z"/></symbol><symbol viewBox="0 0 477.867 477.867" id="play-button" xmlns="http://www.w3.org/2000/svg"><path d="M238.933 0C106.974 0 0 106.974 0 238.933s106.974 238.933 238.933 238.933 238.933-106.974 238.933-238.933C477.726 107.033 370.834.141 238.933 0zm0 443.733c-113.108 0-204.8-91.692-204.8-204.8s91.692-204.8 204.8-204.8 204.8 91.692 204.8 204.8c-.122 113.058-91.742 204.678-204.8 204.8z"/><path d="M339.557 231.32a17.068 17.068 0 00-7.662-7.662l-136.533-68.267c-8.432-4.213-18.682-.794-22.896 7.638a17.068 17.068 0 00-1.8 7.637V307.2c-.004 9.426 7.633 17.07 17.059 17.075a17.068 17.068 0 007.637-1.8l136.533-68.267c8.436-4.204 11.867-14.452 7.662-22.888zM204.8 279.586V198.28l81.306 40.653-81.306 40.653z"/></symbol><symbol viewBox="0 0 512 512" id="twitter" xmlns="http://www.w3.org/2000/svg"><path d="M256 0C114.637 0 0 114.637 0 256s114.637 256 256 256 256-114.637 256-256S397.363 0 256 0zm116.887 199.602c.113 2.52.168 5.05.168 7.593 0 77.645-59.102 167.18-167.184 167.184h.004-.004c-33.184 0-64.062-9.727-90.066-26.395 4.597.543 9.277.813 14.015.813 27.532 0 52.868-9.39 72.98-25.152-25.722-.477-47.41-17.465-54.894-40.813a58.481 58.481 0 0011.043 1.063 58.8 58.8 0 0015.496-2.07c-26.886-5.384-47.14-29.145-47.14-57.598 0-.266 0-.504.007-.75a58.354 58.354 0 0026.614 7.347c-15.778-10.527-26.149-28.523-26.149-48.91a58.597 58.597 0 017.957-29.535c28.977 35.555 72.282 58.937 121.118 61.394a58.708 58.708 0 01-1.528-13.398c0-32.437 26.317-58.754 58.766-58.754 16.902 0 32.168 7.145 42.89 18.567a117.855 117.855 0 0037.313-14.262c-4.395 13.715-13.707 25.222-25.84 32.5 11.887-1.422 23.215-4.574 33.742-9.254a119.412 119.412 0 01-29.308 30.43zm0 0"/></symbol><symbol viewBox="0 0 97.75 97.75" id="vk" xmlns="http://www.w3.org/2000/svg"><path d="M48.875 0C21.883 0 0 21.882 0 48.875S21.883 97.75 48.875 97.75 97.75 75.868 97.75 48.875 75.867 0 48.875 0zm24.792 54.161c2.278 2.225 4.688 4.319 6.733 6.774.906 1.086 1.76 2.209 2.41 3.472.928 1.801.09 3.776-1.522 3.883l-10.013-.002c-2.586.214-4.644-.829-6.379-2.597-1.385-1.409-2.67-2.914-4.004-4.371-.545-.598-1.119-1.161-1.803-1.604-1.365-.888-2.551-.616-3.333.81-.797 1.451-.979 3.059-1.055 4.674-.109 2.361-.821 2.978-3.19 3.089-5.062.237-9.865-.531-14.329-3.083-3.938-2.251-6.986-5.428-9.642-9.025-5.172-7.012-9.133-14.708-12.692-22.625-.801-1.783-.215-2.737 1.752-2.774 3.268-.063 6.536-.055 9.804-.003 1.33.021 2.21.782 2.721 2.037 1.766 4.345 3.931 8.479 6.644 12.313.723 1.021 1.461 2.039 2.512 2.76 1.16.796 2.044.533 2.591-.762.35-.823.501-1.703.577-2.585.26-3.021.291-6.041-.159-9.05-.28-1.883-1.339-3.099-3.216-3.455-.956-.181-.816-.535-.351-1.081.807-.944 1.563-1.528 3.074-1.528l11.313-.002c1.783.35 2.183 1.15 2.425 2.946l.01 12.572c-.021.695.349 2.755 1.597 3.21 1 .33 1.66-.472 2.258-1.105 2.713-2.879 4.646-6.277 6.377-9.794.764-1.551 1.423-3.156 2.063-4.764.476-1.189 1.216-1.774 2.558-1.754l10.894.013c.321 0 .647.003.965.058 1.836.314 2.339 1.104 1.771 2.895-.894 2.814-2.631 5.158-4.329 7.508-1.82 2.516-3.761 4.944-5.563 7.471-1.656 2.31-1.525 3.473.531 5.479z"/></symbol></svg>