<?xml version="1.0" encoding="utf-8"?><svg xmlns="http://www.w3.org/2000/svg" xmlns:xlink="http://www.w3.org/1999/xlink"><symbol viewBox="-17 -101 560 560" id="contact" xmlns="http://www.w3.org/2000/svg"><path d="M462.5-5.582h-400C27.988-5.57.016 22.406 0 56.918v233.371c.016 34.512 27.988 62.492 62.5 62.5h400c34.512-.008 62.484-27.988 62.5-62.5V56.918c-.016-34.512-27.988-62.488-62.5-62.5zm-400 25h400c18.004.047 33.453 12.824 36.875 30.496L262.5 181.918 25.625 49.914c3.422-17.672 18.871-30.45 36.875-30.496zm400 308.25h-400c-20.684-.063-37.441-16.816-37.5-37.5v-212l231.375 128.996a13.17 13.17 0 006.125 1.629 11.86 11.86 0 006.125-1.629L500 78.168v212c-.016 20.703-16.797 37.48-37.5 37.5zm0 0"/></symbol><symbol viewBox="0 0 465 465" id="incoming-call" xmlns="http://www.w3.org/2000/svg"><path d="M140.455 388.979c-12.407 0-22.5 10.094-22.5 22.5s10.093 22.5 22.5 22.5 22.5-10.094 22.5-22.5-10.094-22.5-22.5-22.5zm0 30c-4.136 0-7.5-3.364-7.5-7.5s3.364-7.5 7.5-7.5 7.5 3.364 7.5 7.5-3.365 7.5-7.5 7.5zm-31.64-357.958h63.278c4.142 0 7.5-3.357 7.5-7.5s-3.358-7.5-7.5-7.5h-63.278c-4.142 0-7.5 3.357-7.5 7.5s3.358 7.5 7.5 7.5z"/><path d="M273.409 314.697a7.5 7.5 0 00-7.5 7.5v35.762H15V107.041h250.909v35.763c0 4.143 3.358 7.5 7.5 7.5s7.5-3.357 7.5-7.5V48.409C280.909 21.716 259.193 0 232.5 0H48.409C21.716 0 0 21.716 0 48.409v368.182C0 443.284 21.716 465 48.409 465H232.5c26.693 0 48.409-21.716 48.409-48.409v-94.394a7.5 7.5 0 00-7.5-7.5zM48.409 15H232.5c18.422 0 33.409 14.987 33.409 33.409v43.632H15V48.409C15 29.987 29.987 15 48.409 15zM232.5 450H48.409C29.987 450 15 435.013 15 416.591v-43.632h250.909v43.632c0 18.422-14.987 33.409-33.409 33.409z"/><path d="M457.5 284.696H223.141a7.5 7.5 0 00-7.5 7.5v13.238L150.51 232.5l65.131-72.935v13.238a7.5 7.5 0 007.5 7.5H457.5c4.142 0 7.5-3.357 7.5-7.5s-3.358-7.5-7.5-7.5H230.641v-25.397a7.5 7.5 0 00-13.095-4.995l-82.686 92.594a7.499 7.499 0 000 9.99l82.686 92.594a7.498 7.498 0 008.268 2.013 7.502 7.502 0 004.827-7.008v-25.397H457.5a7.5 7.5 0 000-15.001z"/></symbol><symbol viewBox="0 0 512 512" id="like" xmlns="http://www.w3.org/2000/svg"><path d="M512 304c0-12.821-5.099-24.768-13.888-33.579 9.963-10.901 15.04-25.515 13.653-40.725-2.496-27.115-26.923-48.363-55.637-48.363H324.352c6.528-19.819 16.981-56.149 16.981-85.333 0-46.272-39.317-85.333-64-85.333-22.144 0-37.995 12.48-38.656 12.992A10.672 10.672 0 00234.666 32v72.341L173.205 237.44l-2.539 1.301v-4.075c0-5.888-4.779-10.667-10.667-10.667H53.333C23.915 224 0 247.915 0 277.333V448c0 29.419 23.915 53.333 53.333 53.333h64c23.061 0 42.773-14.72 50.197-35.264C185.28 475.2 209.173 480 224 480h195.819c23.232 0 43.563-15.659 48.341-37.248 2.453-11.136 1.024-22.336-3.84-32.064 15.744-7.915 26.347-24.192 26.347-42.688 0-7.552-1.728-14.784-4.992-21.312C501.419 338.752 512 322.496 512 304zm-44.992 26.325a10.719 10.719 0 00-8.917 7.232 10.688 10.688 0 002.816 11.136c5.419 5.099 8.427 11.968 8.427 19.307 0 13.461-10.176 24.768-23.637 26.325a10.719 10.719 0 00-8.917 7.232 10.688 10.688 0 002.816 11.136c7.019 6.613 9.835 15.893 7.723 25.451-2.624 11.904-14.187 20.523-27.499 20.523H224c-17.323 0-46.379-8.128-56.448-18.219-3.051-3.029-7.659-3.925-11.627-2.304a10.667 10.667 0 00-6.592 9.856c0 17.643-14.357 32-32 32h-64c-17.643 0-32-14.357-32-32V277.333c0-17.643 14.357-32 32-32h96V256c0 3.691 1.92 7.125 5.077 9.088a10.902 10.902 0 0010.368.448l21.333-10.667a10.65 10.65 0 004.907-5.056l64-138.667c.64-1.408.981-2.944.981-4.48V37.781c4.438-2.453 12.14-5.781 21.334-5.781C289.024 32 320 61.056 320 96c0 37.547-20.437 91.669-20.629 92.203a10.739 10.739 0 001.173 9.856 10.728 10.728 0 008.789 4.608h146.795c17.792 0 32.896 12.736 34.389 28.992 1.131 12.16-4.715 23.723-15.189 30.187-3.264 2.005-5.205 5.632-5.056 9.493s2.368 7.317 5.781 9.088c9.024 4.587 14.613 13.632 14.613 23.573.001 13.461-10.175 24.768-23.658 26.325z"/><path d="M160 245.333c-5.888 0-10.667 4.779-10.667 10.667v192c0 5.888 4.779 10.667 10.667 10.667s10.667-4.779 10.667-10.667V256c0-5.888-4.779-10.667-10.667-10.667z"/></symbol><symbol viewBox="0 0 512 512" id="maps-and-flags" xmlns="http://www.w3.org/2000/svg"><path d="M256 0C153.755 0 70.573 83.182 70.573 185.426c0 126.888 165.939 313.167 173.004 321.035 6.636 7.391 18.222 7.378 24.846 0 7.065-7.868 173.004-194.147 173.004-321.035C441.425 83.182 358.244 0 256 0zm0 469.729c-55.847-66.338-152.035-197.217-152.035-284.301 0-83.834 68.202-152.036 152.035-152.036s152.035 68.202 152.035 152.035C408.034 272.515 311.861 403.37 256 469.729z"/><path d="M256 92.134c-51.442 0-93.292 41.851-93.292 93.293S204.559 278.72 256 278.72s93.291-41.851 93.291-93.293S307.441 92.134 256 92.134zm0 153.194c-33.03 0-59.9-26.871-59.9-59.901s26.871-59.901 59.9-59.901 59.9 26.871 59.9 59.901-26.871 59.901-59.9 59.901z"/></symbol><symbol viewBox="0 0 482.6 482.6" id="phone" xmlns="http://www.w3.org/2000/svg"><path d="M98.339 320.8c47.6 56.9 104.9 101.7 170.3 133.4 24.9 11.8 58.2 25.8 95.3 28.2 2.3.1 4.5.2 6.8.2 24.9 0 44.9-8.6 61.2-26.3.1-.1.3-.3.4-.5 5.8-7 12.4-13.3 19.3-20 4.7-4.5 9.5-9.2 14.1-14 21.3-22.2 21.3-50.4-.2-71.9l-60.1-60.1c-10.2-10.6-22.4-16.2-35.2-16.2-12.8 0-25.1 5.6-35.6 16.1l-35.8 35.8c-3.3-1.9-6.7-3.6-9.9-5.2-4-2-7.7-3.9-11-6-32.6-20.7-62.2-47.7-90.5-82.4-14.3-18.1-23.9-33.3-30.6-48.8 9.4-8.5 18.2-17.4 26.7-26.1 3-3.1 6.1-6.2 9.2-9.3 10.8-10.8 16.6-23.3 16.6-36s-5.7-25.2-16.6-36l-29.8-29.8c-3.5-3.5-6.8-6.9-10.2-10.4-6.6-6.8-13.5-13.8-20.3-20.1-10.3-10.1-22.4-15.4-35.2-15.4-12.7 0-24.9 5.3-35.6 15.5l-37.4 37.4c-13.6 13.6-21.3 30.1-22.9 49.2-1.9 23.9 2.5 49.3 13.9 80 17.5 47.5 43.9 91.6 83.1 138.7zm-72.6-216.6c1.2-13.3 6.3-24.4 15.9-34l37.2-37.2c5.8-5.6 12.2-8.5 18.4-8.5 6.1 0 12.3 2.9 18 8.7 6.7 6.2 13 12.7 19.8 19.6 3.4 3.5 6.9 7 10.4 10.6l29.8 29.8c6.2 6.2 9.4 12.5 9.4 18.7s-3.2 12.5-9.4 18.7c-3.1 3.1-6.2 6.3-9.3 9.4-9.3 9.4-18 18.3-27.6 26.8l-.5.5c-8.3 8.3-7 16.2-5 22.2.1.3.2.5.3.8 7.7 18.5 18.4 36.1 35.1 57.1 30 37 61.6 65.7 96.4 87.8 4.3 2.8 8.9 5 13.2 7.2 4 2 7.7 3.9 11 6 .4.2.7.4 1.1.6 3.3 1.7 6.5 2.5 9.7 2.5 8 0 13.2-5.1 14.9-6.8l37.4-37.4c5.8-5.8 12.1-8.9 18.3-8.9 7.6 0 13.8 4.7 17.7 8.9l60.3 60.2c12 12 11.9 25-.3 37.7-4.2 4.5-8.6 8.8-13.3 13.3-7 6.8-14.3 13.8-20.9 21.7-11.5 12.4-25.2 18.2-42.9 18.2-1.7 0-3.5-.1-5.2-.2-32.8-2.1-63.3-14.9-86.2-25.8-62.2-30.1-116.8-72.8-162.1-127-37.3-44.9-62.4-86.7-79-131.5-10.3-27.5-14.2-49.6-12.6-69.7z"/></symbol><symbol viewBox="0 0 480 480" id="seo" xmlns="http://www.w3.org/2000/svg"><path d="M216 72h216v16H216zm0 32h136v16H216zm0 32h136v16H216zm64-96h152v16H280zm-32 0h16v16h-16zm-16 280h16v16h-16zM133.656 53.656l-11.312-11.312-16 16a8 8 0 000 11.312l16 16 11.312-11.312L123.312 64l10.344-10.344zm64 4.688l-16-16-11.312 11.312L180.688 64l-10.344 10.344 11.312 11.312 16-16a8 8 0 000-11.312zM136.401 85.46l16.015-48 15.17 5.062-16.015 48zM416 248v-64h-16v64h-16v-80h-16v80h-16v-40h-16v40h-16v-48h-16v48h-16v-32h-16v32h-16v16h176v-16z"/><path d="M424 0H56C29.501.026 8.026 21.501 8 48v272c.026 26.499 21.501 47.974 48 48h99.056l-32 64H80c-13.255 0-24 10.745-24 24s10.745 24 24 24h320c13.255 0 24-10.745 24-24s-10.745-24-24-24h-43.056l-32-64H424c26.499-.026 47.974-21.501 48-48V48c-.026-26.499-21.501-47.974-48-48zM24 112.56l18.184 21.648a8 8 0 006.128 2.856H72.8a8 8 0 006.128-2.856L97.12 112.56l17.952 5.832 1.984 28.184a8.001 8.001 0 003.272 5.912l19.816 14.4a8.046 8.046 0 006.64 1.288l27.464-6.824 11.104 15.272-14.968 24a7.999 7.999 0 00-.784 6.712l7.576 23.288a8 8 0 004.6 4.944L208 246.2v18.88l-26.24 10.632a7.952 7.952 0 00-4.6 4.952l-2.4 7.336h-46.088c17.928-37.536 2.032-82.499-35.504-100.427A75.321 75.321 0 0024 189.768V112.56zm0 96.24c25.876-20.187 63.218-15.575 83.404 10.302C122.99 239.08 124.193 266.744 110.4 288H24v-79.2zM400 448a8 8 0 010 16H80a8 8 0 010-16h320zm-60.944-16H140.944l32-64h134.112l32 64zM456 320c0 17.673-14.327 32-32 32H56c-17.673 0-32-14.327-32-32v-16h432v16zm0-32H194.04l24.968-10.12a8 8 0 004.992-7.408V240.8a8 8 0 00-4.992-7.416L191.2 222.136l-5.264-16.2 15.856-25.44a8 8 0 00-.32-8.928l-17.44-24a8 8 0 00-8.4-3.064l-29.088 7.2-13.744-9.984-2.104-29.84a8 8 0 00-5.512-7.048l-28.2-9.168a8.064 8.064 0 00-8.6 2.472l-19.256 22.92H52.064L32.8 98.136a8.063 8.063 0 00-8.608-2.472l-.192.072V48c0-17.673 14.327-32 32-32h368c17.673 0 32 14.327 32 32v240z"/></symbol></svg>