<?xml version="1.0" encoding="utf-8"?>
<!-- Generator: Adobe Illustrator 24.2.0, SVG Export Plug-In . SVG Version: 6.00 Build 0)  -->
<svg version="1.1" id="Capa_1" xmlns="http://www.w3.org/2000/svg" xmlns:xlink="http://www.w3.org/1999/xlink" x="0px" y="0px"
	 viewBox="0 0 368 368" style="enable-background:new 0 0 368 368;" xml:space="preserve">
<g>
	<g>
		<path d="M24,370c-14.3,0-26-11.7-26-26V88c0-14.3,11.7-26,26-26h102V24c0-14.3,11.7-26,26-26h136c2.8,0,5.5,1.2,7.4,3.3l72,80
			c0.4,0.5,0.7,0.9,0.9,1.3c0.1,0.1,0.1,0.2,0.2,0.3c0.1,0.1,0.1,0.2,0.2,0.3c0.2,0.3,0.4,0.6,0.6,1c0.5,1.2,0.7,2.5,0.7,3.7l0,16.3
			l0,0V280c0,14.3-11.7,26-26,26H242v38c0,14.3-11.7,26-26,26H24z M24,82c-3.3,0-6,2.7-6,6v256c0,3.3,2.7,6,6,6h192c3.3,0,6-2.7,6-6
			V178h-86c-5.5,0-10-4.5-10-10V82H24z M344,286c3.3,0,6-2.7,6-6V114h-78c-5.5,0-10-4.5-10-10V18H152c-3.3,0-6,2.7-6,6v38h6
			c2.6,0,5.2,1.1,7.1,2.9l79.5,79.5h1.2v0.4l0,0l0,0.9c1.4,1.8,2.2,3.9,2.2,6.2l0,16l0,0.4V286H344z M222,158v-1.9L147.9,82H146v76
			H222z M350,94v-2.2L283.5,18H282v76H350z"/>
		<path d="M368,88c0-1-0.2-2-0.6-3c-0.2-0.4-0.4-0.7-0.6-1c-0.3-0.5-0.5-1-0.8-1.4l-72-80C292.4,1,290.3,0,288,0h-15.6
			c-0.2,0-0.5,0-0.7,0H152c-13.2,0-24,10.8-24,24v40H24C10.8,64,0,74.8,0,88v256c0,13.2,10.8,24,24,24h192c13.2,0,24-10.8,24-24v-40
			h104c13.2,0,24-10.8,24-24V104c0,0,0,0,0,0L368,88z M224,344c0,4.4-3.6,8-8,8H24c-4.4,0-8-3.6-8-8V88c0-4.4,3.6-8,8-8h104v88
			c0,4.4,3.6,8,8,8h88V344z M224,160h-80V80h4.7l75.3,75.3V160z M352,280c0,4.4-3.6,8-8,8H240V168.4c0-0.1,0-0.2,0-0.4l0-16
			c0,0,0,0,0,0c0-2.1-0.8-4-2.2-5.5c0,0,0,0,0,0c0,0,0,0,0,0c0,0,0,0,0,0c0,0-0.1-0.1-0.1-0.1l-80-80c-1.5-1.5-3.5-2.4-5.7-2.4h-8
			V24c0-4.4,3.6-8,8-8h112v88c0,4.4,3.6,8,8,8h80V280z M352,96h-72V16h4.4L352,91.1V96z"/>
	</g>
</g>
</svg>
