<?xml version="1.0" encoding="utf-8"?>
<!-- Generator: Adobe Illustrator 24.2.0, SVG Export Plug-In . SVG Version: 6.00 Build 0)  -->
<svg version="1.1" id="_x31__px" xmlns="http://www.w3.org/2000/svg" xmlns:xlink="http://www.w3.org/1999/xlink" x="0px" y="0px"
	 viewBox="0 0 512 512" style="enable-background:new 0 0 512 512;" xml:space="preserve">
<path d="M74.7,517c-32.2,0-58.3-26.2-58.3-58.3V53.3C16.3,21.2,42.5-5,74.7-5h234.7c32.2,0,58.3,26.2,58.3,58.3
	c0,8.6-7,15.7-15.7,15.7s-15.7-7-15.7-15.7c0-14.9-12.1-27-27-27H74.7c-14.9,0-27,12.1-27,27v405.3c0,14.9,12.1,27,27,27h234.7
	c14.9,0,27-12.1,27-27V416c0-8.6,7-15.7,15.7-15.7s15.7,7,15.7,15.7v42.7c0,32.2-26.2,58.3-58.3,58.3H74.7z"/>
<path d="M309.3,512H74.7c-29.4,0-53.3-23.9-53.3-53.3V53.3C21.3,23.9,45.3,0,74.7,0h234.7c29.4,0,53.3,23.9,53.3,53.3
	c0,5.9-4.8,10.7-10.7,10.7c-5.9,0-10.7-4.8-10.7-10.7c0-17.6-14.4-32-32-32H74.7c-17.6,0-32,14.4-32,32v405.3c0,17.6,14.4,32,32,32
	h234.7c17.6,0,32-14.4,32-32V416c0-5.9,4.8-10.7,10.7-10.7c5.9,0,10.7,4.8,10.7,10.7v42.7C362.7,488.1,338.7,512,309.3,512z"/>
<path d="M149.3,69c-20.4,0-37-16.6-37-37c0-3.1-2.5-5.7-5.7-5.7H85.3c-8.6,0-15.7-7-15.7-15.7S76.7-5,85.3-5h21.3
	c20.4,0,37,16.6,37,37c0,3.1,2.5,5.7,5.7,5.7h85.3c3.1,0,5.7-2.5,5.7-5.7c0-20.4,16.6-37,37-37h21.3c8.6,0,15.7,7,15.7,15.7
	s-7,15.7-15.7,15.7h-21.3c-3.1,0-5.7,2.5-5.7,5.7c0,20.4-16.6,37-37,37H149.3z"/>
<path d="M234.7,64h-85.3c-17.6,0-32-14.4-32-32c0-5.9-4.8-10.7-10.7-10.7H85.3c-5.9,0-10.7-4.8-10.7-10.7S79.4,0,85.3,0h21.3
	c17.6,0,32,14.4,32,32c0,5.9,4.8,10.7,10.7,10.7h85.3c5.9,0,10.7-4.8,10.7-10.7c0-17.6,14.4-32,32-32h21.3c5.9,0,10.7,4.8,10.7,10.7
	s-4.8,10.7-10.7,10.7h-21.3c-5.9,0-10.7,4.8-10.7,10.7C266.7,49.6,252.3,64,234.7,64z"/>
<path d="M309.3,367.7c-20.4,0-37-16.6-37-37V160c0-20.4,16.6-37,37-37h149.3c20.4,0,37,16.6,37,37v170.7c0,20.4-16.6,37-37,37H309.3
	z M309.3,154.3c-3.1,0-5.7,2.5-5.7,5.7v170.7c0,3.1,2.5,5.7,5.7,5.7h149.3c3.1,0,5.7-2.5,5.7-5.7V160c0-3.1-2.5-5.7-5.7-5.7H309.3z"
	/>
<path d="M458.7,362.7H309.3c-17.6,0-32-14.4-32-32V160c0-17.6,14.4-32,32-32h149.3c17.6,0,32,14.4,32,32v170.7
	C490.7,348.3,476.3,362.7,458.7,362.7z M309.3,149.3c-5.9,0-10.7,4.8-10.7,10.7v170.7c0,5.9,4.8,10.7,10.7,10.7h149.3
	c5.9,0,10.7-4.8,10.7-10.7V160c0-5.9-4.8-10.7-10.7-10.7H309.3z"/>
<path d="M352,303.7c-8.6,0-15.7-7-15.7-15.7s7-15.7,15.7-15.7h64c8.6,0,15.7,7,15.7,15.7s-7,15.7-15.7,15.7H352z"/>
<path d="M416,298.7h-64c-5.9,0-10.7-4.8-10.7-10.7s4.8-10.7,10.7-10.7h64c5.9,0,10.7,4.8,10.7,10.7S421.9,298.7,416,298.7z"/>
<path d="M352,239.7c-8.6,0-15.7-7-15.7-15.7s7-15.7,15.7-15.7h64c8.6,0,15.7,7,15.7,15.7s-7,15.7-15.7,15.7H352z"/>
<path d="M416,234.7h-64c-5.9,0-10.7-4.8-10.7-10.7s4.8-10.7,10.7-10.7h64c5.9,0,10.7,4.8,10.7,10.7S421.9,234.7,416,234.7z"/>
<path d="M416,175.7c-8.6,0-15.7-7-15.7-15.7v-42.7c0-8.6,7-15.7,15.7-15.7s15.7,7,15.7,15.7V160C431.7,168.6,424.6,175.7,416,175.7z
	"/>
<path d="M416,170.7c-5.9,0-10.7-4.8-10.7-10.7v-42.7c0-5.9,4.8-10.7,10.7-10.7c5.9,0,10.7,4.8,10.7,10.7V160
	C426.7,165.9,421.9,170.7,416,170.7z"/>
<path d="M352,175.7c-8.6,0-15.7-7-15.7-15.7v-42.7c0-8.6,7-15.7,15.7-15.7s15.7,7,15.7,15.7V160C367.7,168.6,360.6,175.7,352,175.7z
	"/>
<path d="M352,170.7c-5.9,0-10.7-4.8-10.7-10.7v-42.7c0-5.9,4.8-10.7,10.7-10.7c5.9,0,10.7,4.8,10.7,10.7V160
	C362.7,165.9,357.9,170.7,352,170.7z"/>
</svg>
