<?xml version="1.0" encoding="utf-8"?>
<!-- Generator: Adobe Illustrator 24.2.0, SVG Export Plug-In . SVG Version: 6.00 Build 0)  -->
<svg version="1.1" id="Capa_1" xmlns="http://www.w3.org/2000/svg" xmlns:xlink="http://www.w3.org/1999/xlink" x="0px" y="0px"
	 viewBox="0 0 477.9 477.9" style="enable-background:new 0 0 477.9 477.9;" xml:space="preserve">
<g>
	<g>
		<path d="M51.2,407.6C24.1,407.6,2,385.5,2,358.4V119.5c0-27.1,22.1-49.2,49.2-49.2h375.5c27.1,0,49.2,22.1,49.2,49.2v238.9
			c0,27.1-22.1,49.2-49.2,49.2H51.2z M32.1,347.6v10.8c0,10.5,8.6,19.1,19.1,19.1h375.5c10.5,0,19.1-8.6,19.1-19.1l0-45L324.3,192
			L181.3,334.9c-2.8,2.8-6.6,4.4-10.7,4.4s-7.8-1.6-10.7-4.4l-57.6-57.6L32.1,347.6z M51.2,100.4c-10.5,0-19.1,8.6-19.1,19.1V305
			l59.6-59.6c2.8-2.8,6.6-4.4,10.7-4.4s7.8,1.6,10.7,4.4l57.6,57.6L313.6,160c2.8-2.8,6.6-4.4,10.7-4.4c4,0,7.8,1.6,10.7,4.4
			l110.8,110.8l0-151.4c0-10.5-8.6-19.1-19.1-19.1H51.2z"/>
	</g>
</g>
<g>
	<g>
		<path d="M153.6,236.9c-27.1,0-49.2-22.1-49.2-49.2s22.1-49.2,49.2-49.2s49.2,22.1,49.2,49.2S180.7,236.9,153.6,236.9z
			 M153.6,168.7c-10.5,0-19.1,8.6-19.1,19.1s8.6,19.1,19.1,19.1s19.1-8.6,19.1-19.1S164.1,168.7,153.6,168.7z"/>
	</g>
</g>
</svg>
