<?xml version="1.0" encoding="utf-8"?>
<!-- Generator: Adobe Illustrator 24.2.0, SVG Export Plug-In . SVG Version: 6.00 Build 0)  -->
<svg version="1.1" id="Capa_1" xmlns="http://www.w3.org/2000/svg" xmlns:xlink="http://www.w3.org/1999/xlink" x="0px" y="0px"
	 viewBox="0 0 512 512" style="enable-background:new 0 0 512 512;" xml:space="preserve">
<g>
	<g>
		<path d="M137.6,502c-2.6,0-5.1-1-7-2.9c-3.8-3.8-3.8-10.1,0-13.9L360.5,256L130.6,26.8c-1.9-1.9-2.9-4.3-2.9-7c0-2.6,1-5.1,2.9-7
			c1.9-1.9,4.3-2.9,7-2.9c2.6,0,5.1,1,7,2.9L381.4,249c1.8,1.8,2.9,4.4,2.9,7c0,2.6-1.1,5.1-2.9,7L144.5,499.1
			C142.7,501,140.2,502,137.6,502z"/>
		<path d="M137.6,497c-0.9,0-2.3-0.2-3.4-1.4c-1.9-1.9-1.9-5,0-6.8L367.5,256L134.2,23.3c-1.2-1.2-1.4-2.7-1.4-3.4
			c0-0.7,0.2-2.2,1.4-3.4c1.2-1.2,2.7-1.4,3.4-1.4c0.9,0,2.3,0.2,3.4,1.4l236.8,236.2c0.9,0.9,1.4,2.2,1.4,3.4
			c0,1.3-0.5,2.5-1.4,3.4L141,495.6C139.8,496.8,138.5,497,137.6,497z"/>
	</g>
</g>
</svg>
