<svg xmlns="http://www.w3.org/2000/svg" viewBox="0 0 465 465"><path d="M140.455 388.979c-12.407 0-22.5 10.094-22.5 22.5s10.093 22.5 22.5 22.5 22.5-10.094 22.5-22.5-10.094-22.5-22.5-22.5zm0 30c-4.136 0-7.5-3.364-7.5-7.5s3.364-7.5 7.5-7.5 7.5 3.364 7.5 7.5-3.365 7.5-7.5 7.5zm-31.64-357.958h63.278c4.142 0 7.5-3.357 7.5-7.5s-3.358-7.5-7.5-7.5h-63.278c-4.142 0-7.5 3.357-7.5 7.5s3.358 7.5 7.5 7.5z"/><path d="M273.409 314.697a7.5 7.5 0 00-7.5 7.5v35.762H15V107.041h250.909v35.763c0 4.143 3.358 7.5 7.5 7.5s7.5-3.357 7.5-7.5V48.409C280.909 21.716 259.193 0 232.5 0H48.409C21.716 0 0 21.716 0 48.409v368.182C0 443.284 21.716 465 48.409 465H232.5c26.693 0 48.409-21.716 48.409-48.409v-94.394a7.5 7.5 0 00-7.5-7.5zM48.409 15H232.5c18.422 0 33.409 14.987 33.409 33.409v43.632H15V48.409C15 29.987 29.987 15 48.409 15zM232.5 450H48.409C29.987 450 15 435.013 15 416.591v-43.632h250.909v43.632c0 18.422-14.987 33.409-33.409 33.409z"/><path d="M457.5 284.696H223.141a7.5 7.5 0 00-7.5 7.5v13.238L150.51 232.5l65.131-72.935v13.238a7.5 7.5 0 007.5 7.5H457.5c4.142 0 7.5-3.357 7.5-7.5s-3.358-7.5-7.5-7.5H230.641v-25.397a7.5 7.5 0 00-13.095-4.995l-82.686 92.594a7.499 7.499 0 000 9.99l82.686 92.594a7.498 7.498 0 008.268 2.013 7.502 7.502 0 004.827-7.008v-25.397H457.5a7.5 7.5 0 000-15.001z"/></svg>